<?xml version="1.0" standalone="no"?>
<!DOCTYPE svg PUBLIC "-//W3C//DTD SVG 20010904//EN"
 "http://www.w3.org/TR/2001/REC-SVG-20010904/DTD/svg10.dtd">
<svg version="1.0" xmlns="http://www.w3.org/2000/svg"
 width="815.000000pt" height="306.000000pt" viewBox="0 0 815.000000 306.000000"
 preserveAspectRatio="xMidYMid meet">

<g transform="translate(0.000000,306.000000) scale(0.100000,-0.100000)"
fill="#000000" stroke="none">
<path d="M1320 2505 c-208 -19 -370 -53 -601 -129 -126 -41 -353 -147 -425
-199 -28 -20 -55 -37 -60 -37 -19 0 -115 -93 -139 -134 -34 -58 -34 -128 0
-177 68 -102 328 -170 425 -113 29 17 35 26 35 53 0 48 -29 65 -163 100 -160
42 -169 53 -99 118 116 107 352 224 567 282 l73 19 -6 -120 c-9 -151 -55 -576
-67 -604 -6 -15 -23 -24 -64 -32 -128 -26 -208 -120 -186 -219 11 -50 89 -122
165 -153 l58 -23 -6 -76 c-4 -42 -12 -139 -18 -216 -6 -77 -9 -185 -7 -240 3
-85 7 -105 26 -133 20 -28 29 -32 67 -32 75 0 77 7 86 323 5 150 11 283 14
297 l6 26 112 -14 c213 -25 514 1 717 63 47 14 99 30 116 34 75 20 275 128
369 200 181 139 309 343 322 516 20 261 -199 489 -562 585 -173 45 -474 59
-755 35z m475 -140 c212 -26 379 -80 489 -159 135 -96 180 -182 174 -331 -3
-77 -9 -99 -37 -158 -63 -126 -204 -254 -371 -337 -118 -58 -194 -86 -339
-122 -119 -30 -137 -32 -316 -32 -168 -1 -201 2 -287 23 l-98 24 0 65 0 64 28
-6 c15 -3 59 -9 99 -12 110 -10 157 19 133 82 -12 32 -60 54 -155 73 l-80 16
3 55 c2 30 12 125 23 210 27 214 35 386 20 445 -9 35 -9 50 -1 55 14 9 204 39
310 49 138 13 278 12 405 -4z m-952 -1012 c-3 -21 -6 -39 -7 -40 -1 -1 -17 10
-36 25 l-33 26 29 13 c47 20 53 17 47 -24z"/>
<path d="M6829 2180 c-40 -21 -104 -93 -137 -155 -105 -195 -189 -566 -199
-885 l-5 -165 -46 -85 c-94 -177 -176 -221 -264 -143 -39 36 -98 140 -98 174
0 8 17 56 39 105 82 190 132 329 160 443 73 296 65 497 -23 607 -24 30 -32 34
-76 34 -73 0 -123 -42 -177 -150 -51 -102 -108 -304 -118 -417 l-7 -83 -53 0
c-41 0 -68 -8 -121 -36 -114 -59 -204 -191 -277 -405 -69 -201 -156 -309 -248
-309 -23 0 -42 11 -74 43 -43 42 -95 135 -95 169 0 10 20 62 44 115 141 311
199 534 200 768 1 150 -16 218 -67 273 -26 27 -38 32 -75 32 -27 0 -57 -8 -76
-20 -41 -24 -99 -108 -131 -189 -29 -71 -82 -292 -91 -379 l-7 -59 -62 -5
c-84 -7 -153 -46 -219 -123 -28 -33 -57 -71 -65 -85 -36 -61 -80 -161 -101
-225 -46 -141 -126 -270 -187 -300 -54 -26 -87 -20 -137 28 -43 40 -96 133
-96 169 0 9 25 72 56 140 70 152 144 377 174 526 18 94 22 137 18 245 -4 145
-16 185 -72 245 -26 28 -36 32 -80 32 -47 0 -53 -3 -104 -56 -32 -33 -65 -81
-82 -117 -33 -74 -97 -320 -106 -410 l-7 -64 -61 -5 c-105 -9 -176 -56 -257
-171 -55 -78 -101 -171 -119 -238 -14 -51 -50 -100 -135 -185 -66 -66 -104
-89 -180 -110 -108 -30 -185 -6 -235 72 -16 27 -30 53 -30 60 0 7 25 18 58 24
79 17 126 43 194 108 82 78 121 162 122 262 1 63 -3 81 -23 114 -35 56 -74 76
-149 76 -107 0 -198 -53 -267 -158 -119 -180 -139 -418 -48 -570 42 -69 81
-105 149 -137 66 -31 181 -34 260 -7 54 19 185 94 205 118 19 23 26 17 33 -28
39 -244 272 -263 488 -40 l75 77 49 -54 c65 -72 124 -108 189 -116 91 -12 148
2 215 51 62 45 63 45 73 4 8 -34 62 -88 106 -106 95 -41 230 13 356 140 l81
81 59 -63 c83 -90 119 -106 230 -107 96 0 124 10 187 70 15 14 29 25 32 25 2
0 9 -15 16 -34 14 -43 73 -102 117 -117 96 -31 226 23 348 146 l81 80 59 -63
c84 -90 119 -106 231 -106 82 0 95 2 130 26 42 28 108 90 141 132 l21 26 28
-47 c75 -131 140 -173 264 -173 56 0 83 6 133 29 64 29 172 120 196 164 l13
25 52 -52 c75 -76 141 -106 236 -106 92 0 158 21 259 81 76 45 205 171 236
230 9 19 24 46 31 60 15 29 5 76 -19 91 -40 25 -83 0 -137 -82 -13 -19 -54
-64 -92 -100 -139 -133 -300 -156 -396 -57 -17 18 -34 47 -38 64 -6 31 -6 31
52 43 117 24 229 115 289 237 24 48 29 71 29 134 1 65 -2 81 -26 116 -34 51
-80 73 -155 73 -102 0 -207 -68 -277 -179 -32 -50 -75 -178 -83 -246 -7 -61
-87 -227 -139 -291 -45 -55 -80 -74 -133 -74 -48 0 -85 28 -129 98 -30 46 -72
159 -72 191 0 9 27 54 60 99 122 171 215 349 291 556 77 211 80 445 6 525 -48
51 -125 64 -188 31z m95 -258 c-1 -101 -37 -224 -117 -400 -62 -135 -145 -287
-153 -280 -7 8 16 261 31 332 42 200 101 351 161 414 42 44 45 45 62 29 13
-14 17 -34 16 -95z m-2887 -177 c-7 -130 -61 -355 -121 -505 l-27 -65 5 150
c6 233 64 517 118 582 21 26 31 -40 25 -162z m1069 0 c-6 -126 -35 -251 -100
-440 l-45 -130 0 100 c-2 237 52 527 116 624 l17 26 9 -35 c5 -19 7 -84 3
-145z m1064 53 c0 -68 -7 -163 -16 -213 -14 -86 -91 -333 -120 -385 -12 -23
-13 -17 -13 60 -1 97 30 348 54 441 27 106 72 219 87 219 4 0 8 -55 8 -122z
m-3246 -490 c20 -28 21 -90 2 -126 -34 -64 -125 -125 -179 -120 -30 3 -32 6
-29 36 1 19 19 68 40 110 32 64 45 80 82 99 54 29 65 29 84 1z m4576 2 c14
-14 20 -33 20 -64 0 -84 -118 -193 -198 -184 -24 3 -27 7 -24 38 3 41 36 124
64 160 21 27 86 70 106 70 6 0 21 -9 32 -20z m-3782 -25 c4 -3 10 -72 14 -153
4 -81 11 -163 16 -182 10 -40 -7 -70 -99 -181 -93 -110 -167 -137 -213 -76
-30 40 -29 165 2 265 21 68 76 193 104 237 37 57 62 87 82 96 21 9 83 5 94 -6z
m1070 0 c4 -3 10 -72 14 -153 4 -81 11 -163 16 -182 7 -30 4 -41 -20 -78 -52
-76 -128 -162 -168 -188 -122 -81 -189 59 -125 263 51 163 138 322 188 343 22
10 84 6 95 -5z m1070 0 c4 -3 10 -68 14 -143 3 -75 9 -159 13 -187 6 -46 4
-54 -26 -95 -55 -76 -132 -160 -166 -181 -44 -28 -90 -22 -117 14 -15 21 -22
47 -24 100 -4 64 1 88 38 200 44 132 112 256 161 291 23 17 91 17 107 1z"/>
</g>
</svg>
